<svg xmlns="http://www.w3.org/2000/svg" viewBox="0 0 32 32" width="32" height="32">
  <defs>
    <linearGradient id="leafGradient" x1="0%" y1="0%" x2="100%" y2="100%">
      <stop offset="0%" style="stop-color:#4CAF50;stop-opacity:1" />
      <stop offset="50%" style="stop-color:#66BB6A;stop-opacity:1" />
      <stop offset="100%" style="stop-color:#2E7D32;stop-opacity:1" />
    </linearGradient>
  </defs>
  
  <!-- Leaf shape -->
  <path d="M16 2 C8 2, 2 8, 2 16 C2 20, 4 23, 7 25 C10 27, 13 28, 16 30 C19 28, 22 27, 25 25 C28 23, 30 20, 30 16 C30 8, 24 2, 16 2 Z" 
        fill="url(#leafGradient)" 
        stroke="#1B5E20" 
        stroke-width="0.5"/>
  
  <!-- Leaf vein -->
  <path d="M16 4 L16 28" 
        stroke="#1B5E20" 
        stroke-width="1" 
        opacity="0.6"/>
  
  <!-- Side veins -->
  <path d="M16 8 Q12 10, 8 14" 
        stroke="#1B5E20" 
        stroke-width="0.5" 
        opacity="0.4" 
        fill="none"/>
  <path d="M16 8 Q20 10, 24 14" 
        stroke="#1B5E20" 
        stroke-width="0.5" 
        opacity="0.4" 
        fill="none"/>
  <path d="M16 14 Q12 16, 9 20" 
        stroke="#1B5E20" 
        stroke-width="0.5" 
        opacity="0.4" 
        fill="none"/>
  <path d="M16 14 Q20 16, 23 20" 
        stroke="#1B5E20" 
        stroke-width="0.5" 
        opacity="0.4" 
        fill="none"/>
</svg>